# xmcd CD Database Entry
#
# Track frame offsets:
# 150
# 44288
# 61724
# 70794
# 83772
# 108813
# 172822
#
# Disc length: 2883 seconds
#
# Revision: 1
# Processed by: cddbd v1.4PL0 Copyright (c) Steve Scherf et al.
# Submitted via: tcd 2.0b
#
DISCID=480b4107
DTITLE=FÜR ELISE - CD 1
DYEAR=1900
DGENRE=
TTITLE0=Rondo Nr. 2 G-Dur - Rondo No.2 in G major op. 51
TTITLE1=Allegretto c-moll - in C minor WoO 53
TTITLE2=Sechs Eccosaisen WoO 83
TTITLE3=Für Elise WoO 59
TTITLE4=Polonaise C-Dur - Polonaise in C mayor op. 89
TTITLE5=Fantasie Für Orgel f-moll - Fantasy for organ in F minor KV 6
TTITLE5=08
TTITLE6=Passacaglia g-moll - in G minor
EXTD=206256-360 FÜR ELISE
EXTT0=Ludwig Van beethoven
EXTT1=Ludwig Van beethoven
EXTT2=Ludwig Van beethoven
EXTT3=Ludwig Van beethoven
EXTT4=Ludwig Van beethoven
EXTT5=Wolfang Amadeus Mozart
EXTT6=GEORG MUFFAT
PLAYORDER=
